<svg width="151" height="18" viewBox="0 0 151 18" fill="none" xmlns="http://www.w3.org/2000/svg">
<path d="M0.125 18V0.545454H7.65909C8.95455 0.545454 10.0881 0.801136 11.0597 1.3125C12.0313 1.82386 12.7869 2.54261 13.3267 3.46875C13.8665 4.39489 14.1364 5.47727 14.1364 6.71591C14.1364 7.96591 13.858 9.0483 13.3011 9.96307C12.75 10.8778 11.9744 11.5824 10.9744 12.0767C9.98011 12.571 8.81818 12.8182 7.48864 12.8182H2.98864V9.13636H6.53409C7.09091 9.13636 7.56534 9.03977 7.95739 8.84659C8.35511 8.64773 8.65909 8.36648 8.86932 8.00284C9.08523 7.6392 9.19318 7.21023 9.19318 6.71591C9.19318 6.21591 9.08523 5.78977 8.86932 5.4375C8.65909 5.07955 8.35511 4.80682 7.95739 4.61932C7.56534 4.42614 7.09091 4.32954 6.53409 4.32954H4.86364V18H0.125ZM18.2294 18H13.1158L18.8771 0.545454H25.3544L31.1158 18H26.0021L22.1839 5.35227H22.0476L18.2294 18ZM17.2749 11.1136H26.8885V14.6591H17.2749V11.1136ZM30.1165 4.36364V0.545454H45.2869V4.36364H40.0369V18H35.3665V4.36364H30.1165ZM47.0703 18V0.545454H51.8089V7.36364H58.0817V0.545454H62.8203V18H58.0817V11.1818H51.8089V18H47.0703ZM69.5021 18L64.3544 0.545454H69.6385L72.0249 11.2841H72.1612L74.9908 0.545454H79.1499L81.9794 11.3182H82.1158L84.5021 0.545454H89.7862L84.6385 18H80.1044L77.1385 8.25H77.0021L74.0362 18H69.5021ZM91.3203 18V0.545454H96.0589V7.36364H102.332V0.545454H107.07V18H102.332V11.1818H96.0589V18H91.3203ZM109.32 18V0.545454H121.9V4.36364H114.059V7.36364H121.252V11.1818H114.059V14.1818H121.866V18H109.32ZM124.25 18V0.545454H136.83V4.36364H128.989V7.36364H136.182V11.1818H128.989V14.1818H136.795V18H124.25ZM139.18 18V0.545454H143.918V14.1818H150.975V18H139.18Z" fill="black"/>
</svg>
