<svg width="41" height="18" viewBox="0 0 41 18" fill="none" xmlns="http://www.w3.org/2000/svg">
<path d="M0.125 18V0.545454H7.65909C8.95455 0.545454 10.0881 0.801136 11.0597 1.3125C12.0313 1.82386 12.7869 2.54261 13.3267 3.46875C13.8665 4.39489 14.1364 5.47727 14.1364 6.71591C14.1364 7.96591 13.858 9.0483 13.3011 9.96307C12.75 10.8778 11.9744 11.5824 10.9744 12.0767C9.98011 12.571 8.81818 12.8182 7.48864 12.8182H2.98864V9.13636H6.53409C7.09091 9.13636 7.56534 9.03977 7.95739 8.84659C8.35511 8.64773 8.65909 8.36648 8.86932 8.00284C9.08523 7.6392 9.19318 7.21023 9.19318 6.71591C9.19318 6.21591 9.08523 5.78977 8.86932 5.4375C8.65909 5.07955 8.35511 4.80682 7.95739 4.61932C7.56534 4.42614 7.09091 4.32954 6.53409 4.32954H4.86364V18H0.125ZM20.3068 18L15.1591 0.545454H20.4432L22.8295 11.2841H22.9659L25.7955 0.545454H29.9545L32.7841 11.3182H32.9205L35.3068 0.545454H40.5909L35.4432 18H30.9091L27.9432 8.25H27.8068L24.8409 18H20.3068Z" fill="black"/>
</svg>
